<svg id="Layer_1" data-name="Layer 1" xmlns="http://www.w3.org/2000/svg" xmlns:xlink="http://www.w3.org/1999/xlink" viewBox="0 0 1557.86 511.96"><defs><style>.cls-1{fill:url(#radial-gradient);}</style><radialGradient id="radial-gradient" cx="913.43" cy="256.03" r="579.76" gradientTransform="translate(145.35 1169.45) rotate(-90) scale(1 3)" gradientUnits="userSpaceOnUse"><stop offset="0" stop-color="#2d3c41"/><stop offset="1" stop-color="#343346"/></radialGradient></defs><title>gradient-connectors1</title><path class="cls-1" d="M1647.51,189.12l-.15-38.26,22-13.81a25,25,0,0,0,23-25l-.44-112-137,.53.44,112a25,25,0,0,0,24.85,24.89L1602.14,151l.16,41.59h.06v.55a137.63,137.63,0,0,0,2.05,24.09H203v0H189.5a9.5,9.5,0,0,0-9.5,9.51V299h-.35v62.29h0L157.57,375h0a25,25,0,0,0-23,24.91V512h137V399.94a25,25,0,0,0-24.75-25h0l-21.88-13.6h0V299H224V251H1624.24a6,6,0,0,0,.73,0c12.48,0,22.6-25.91,22.59-57.87C1647.57,191.78,1647.55,190.44,1647.51,189.12Z" transform="translate(-134.5 -0.05)"/></svg>