<svg xmlns="http://www.w3.org/2000/svg" xmlns:xlink="http://www.w3.org/1999/xlink" viewBox="0 0 280.8 187.2"><defs><style>.cls-1{fill-rule:evenodd;fill:url(#New_Gradient_Swatch_1);}.cls-2{fill:url(#New_Gradient_Swatch_1-2);}.cls-3{fill:url(#New_Gradient_Swatch_1-8);}</style><linearGradient id="New_Gradient_Swatch_1" x1="113.57" y1="76.56" x2="167.23" y2="76.56" gradientUnits="userSpaceOnUse"><stop offset="0" stop-color="#00af61"/><stop offset="0.48" stop-color="#0066b3"/><stop offset="1" stop-color="#00ab65"/></linearGradient><linearGradient id="New_Gradient_Swatch_1-2" x1="101.9" y1="105.9" x2="182.35" y2="105.9" xlink:href="#New_Gradient_Swatch_1"/><linearGradient id="New_Gradient_Swatch_1-8" x1="124.12" y1="120.3" x2="159.4" y2="120.3" xlink:href="#New_Gradient_Swatch_1"/></defs><title>Artboard 2</title><g id="Layer_1-2" data-name="Layer 1"><path class="cls-1" d="M131.09,71.45c-1.66-.19-3.83-1.07-6.54.92a6.76,6.76,0,0,0-1.9,2.23c-.52.93-.55,2.34-1,3.17-.52.62-2.77.48-4.57,3a7,7,0,0,0-.84,6.14c1.74,5.36,7.21,4.54,10.89,4.54a5.6,5.6,0,0,0,.68,0h3a1,1,0,0,0,1-1h0a1,1,0,0,0-1-1h-2.84a10.85,10.85,0,0,0-2,0h-3.32a5.28,5.28,0,0,1-3.46-1.61,4.58,4.58,0,0,1-.41-5.72,5.18,5.18,0,0,1,2.08-1.71c1.48-.66,1.27.15,3.12-.82.22-3.07-.08-4.17,2.15-5.65,3.21-2.12,4.89.71,6.19-.06,1-.62.8-4.22,5-7.45a12.86,12.86,0,0,1,17.82,1.89,13.47,13.47,0,0,1,2.91,6.45c.12,1.34-.23,2,.66,2.67.83.35,1.95.26,2.88.7a5.9,5.9,0,0,1-1.07,11.13c-3.29.85-6.12-1.07-5.55,1.93,1.39.67,5.52.46,7.62-.43A7.9,7.9,0,0,0,166.78,86a7.74,7.74,0,0,0-1-7c-1.22-1.88-2.85-2.79-5.38-3.47a11.24,11.24,0,0,1-.63-2.62,15,15,0,0,0-26.33-5.65,26,26,0,0,0-2.39,4.18Zm-.27-8a.92.92,0,0,1,.13,1.67.91.91,0,0,1-.78.06,11.06,11.06,0,0,0-14.77,8.36.92.92,0,0,1-1.82-.34,12.91,12.91,0,0,1,17.24-9.75Zm-9.08,4.06a9.22,9.22,0,0,1,7.78-.61.92.92,0,0,1-.64,1.73A7.37,7.37,0,0,0,119,74.18a.92.92,0,0,1-1.82-.34,9.23,9.23,0,0,1,4.53-6.36ZM135.2,91.56V86.31h3.16v5.24Zm0-6.18V83.5h3.16v1.88Zm14.14,6.18V86.31h3.16v5.24ZM135.2,82.71V80.84h3.16v1.87Zm0-2.72V78.12h3.16V80Zm14.14,5.38V83.5h3.16v1.88Zm0-2.66V80.84h3.16v1.87Zm0-2.72V78.12h3.16V80ZM140,91.56V81h3.16V91.56ZM140,80V78.17h3.16V80Zm0-2.66V75.51h3.16v1.88Zm0-2.71V72.79h3.16v1.88Zm4.55,16.89V85.13h3.16v6.43Zm0-7.37V82.32h3.16v1.88Zm0-2.66V79.65h3.16v1.88Zm0-2.72V76.94h3.16v1.88Z"/><path class="cls-2" d="M106.62,105.79v-3.58q1.23,0,1.23-.94t-.94-.86q-.95,0-.95,1.18v8.91H101.9V102a7.4,7.4,0,0,1,.26-2.16,4.37,4.37,0,0,1,.9-1.57,5.08,5.08,0,0,1,1.8-1.28,5.52,5.52,0,0,1,2.23-.47,4.77,4.77,0,0,1,3.49,1.4,4.68,4.68,0,0,1,1.41,3.47,4.37,4.37,0,0,1-1.27,3.26,4.78,4.78,0,0,1-3.5,1.15Z"/><path class="cls-2" d="M119.89,100.33a4.93,4.93,0,0,1,3.63,1.52,5.17,5.17,0,0,1,0,7.33,5.27,5.27,0,0,1-7.41,0,5,5,0,0,1-1.54-3.67,4.93,4.93,0,0,1,1.54-3.68A5.24,5.24,0,0,1,119.89,100.33Zm-.1,3.69a1.36,1.36,0,0,0-1,.43,1.55,1.55,0,0,0,0,2.12,1.4,1.4,0,0,0,2,0,1.55,1.55,0,0,0,0-2.12A1.37,1.37,0,0,0,119.79,104Z"/><path class="cls-2" d="M132.09,96.87v13.64h-3.74V96.87Z"/><path class="cls-2" d="M137.32,114.87v-3.25a3.51,3.51,0,0,0,1.33.32,2.34,2.34,0,0,0,2.36-2,3.75,3.75,0,0,1-1.92.58,2.9,2.9,0,0,1-2.29-1,3.87,3.87,0,0,1-.9-2.63v-6.26h3.74v5.36q0,.89.74.89t.71-1v-5.27h3.74v8.89a5.72,5.72,0,0,1-1.4,4,5.28,5.28,0,0,1-4,1.82A5.67,5.67,0,0,1,137.32,114.87Z"/><path class="cls-2" d="M153.88,110.51v-9.83a4.14,4.14,0,0,1,1.11-3,3.8,3.8,0,0,1,2.88-1.16,3.55,3.55,0,0,1,3.23,1.93A4.5,4.5,0,0,1,162.57,97a3.93,3.93,0,0,1,1.95-.44,3.48,3.48,0,0,1,2.82,1.16,5,5,0,0,1,1,3.34v9.48h-4.06v-8.87a2.36,2.36,0,0,0-.1-.87.43.43,0,0,0-.42-.21q-.6,0-.6,1v8.94h-4.06v-8.87a2.25,2.25,0,0,0-.11-.87.43.43,0,0,0-.43-.22q-.6,0-.6,1.09v8.87Z"/><path class="cls-2" d="M177,105.79v-3.58q1.23,0,1.23-.94t-.94-.86q-.95,0-.95,1.18v8.91h-4.06V102a7.4,7.4,0,0,1,.26-2.16,4.37,4.37,0,0,1,.9-1.57,5.08,5.08,0,0,1,1.8-1.28,5.52,5.52,0,0,1,2.23-.47,4.77,4.77,0,0,1,3.49,1.4,4.68,4.68,0,0,1,1.41,3.47,4.37,4.37,0,0,1-1.27,3.26,4.78,4.78,0,0,1-3.5,1.15Z"/><path class="cls-3" d="M124.12,118.19a5,5,0,0,1,.83-.07,1.39,1.39,0,0,1,.95.28.91.91,0,0,1,.29.71,1,1,0,0,1-.26.72,1.4,1.4,0,0,1-1,.37,1.48,1.48,0,0,1-.35,0v1.35h-.43Zm.43,1.63a1.45,1.45,0,0,0,.36,0c.53,0,.85-.25.85-.72s-.31-.66-.79-.66a1.8,1.8,0,0,0-.41,0Z"/><path class="cls-3" d="M127.38,118h.44v3.55h-.44Z"/><path class="cls-3" d="M130.55,121.53l0-.31h0a.9.9,0,0,1-.74.36.69.69,0,0,1-.74-.7c0-.59.52-.91,1.46-.9v0a.5.5,0,0,0-.55-.56,1.21,1.21,0,0,0-.63.18l-.1-.29a1.51,1.51,0,0,1,.8-.21c.74,0,.92.51.92,1v.91a3.39,3.39,0,0,0,0,.58Zm-.07-1.24c-.48,0-1,.08-1,.55a.39.39,0,0,0,.42.42.6.6,0,0,0,.58-.41.44.44,0,0,0,0-.14Z"/><path class="cls-3" d="M132.39,119.1l.53,1.43c.06.16.12.35.16.5h0c0-.15.1-.33.16-.51l.48-1.42h.47l-.66,1.73a3.7,3.7,0,0,1-.83,1.52,1.21,1.21,0,0,1-.54.29l-.11-.37a1.16,1.16,0,0,0,.39-.21,1.33,1.33,0,0,0,.37-.49.3.3,0,0,0,0-.11.39.39,0,0,0,0-.12l-.9-2.23Z"/><path class="cls-3" d="M136.85,120.46l-.35,1.06h-.45l1.15-3.37h.53l1.15,3.37h-.47l-.36-1.06Zm1.11-.34-.33-1c-.08-.22-.13-.42-.18-.62h0c0,.2-.11.41-.17.61l-.33,1Z"/><path class="cls-3" d="M140,119.76c0-.25,0-.46,0-.66h.39l0,.4h0a.89.89,0,0,1,.8-.46c.34,0,.86.2.86,1v1.45h-.44v-1.4c0-.39-.15-.72-.56-.72a.63.63,0,0,0-.59.45.62.62,0,0,0,0,.21v1.46H140Z"/><path class="cls-3" d="M143.5,119.1l.53,1.43c.06.16.12.35.16.5h0c0-.15.09-.33.15-.51l.48-1.42h.47l-.66,1.73a3.69,3.69,0,0,1-.83,1.52,1.21,1.21,0,0,1-.54.29l-.11-.37a1.16,1.16,0,0,0,.38-.21,1.33,1.33,0,0,0,.37-.49.3.3,0,0,0,0-.11.37.37,0,0,0,0-.12l-.9-2.23Z"/><path class="cls-3" d="M146.88,118.41v.7h.63v.34h-.63v1.31c0,.3.08.47.33.47a1,1,0,0,0,.25,0l0,.33a1.08,1.08,0,0,1-.39.06.61.61,0,0,1-.48-.18.9.9,0,0,1-.17-.63v-1.32h-.38v-.34h.38v-.58Z"/><path class="cls-3" d="M148.65,118h.44v1.51h0a.82.82,0,0,1,.32-.31.9.9,0,0,1,.45-.12c.33,0,.85.2.85,1v1.44h-.44v-1.39c0-.39-.15-.72-.56-.72a.63.63,0,0,0-.59.44.53.53,0,0,0,0,.21v1.46h-.44Z"/><path class="cls-3" d="M152.56,118.42a.27.27,0,0,1-.54,0,.27.27,0,0,1,.28-.28A.26.26,0,0,1,152.56,118.42Zm-.49,3.1V119.1h.44v2.42Z"/><path class="cls-3" d="M153.89,119.76c0-.25,0-.46,0-.66h.39l0,.4h0a.89.89,0,0,1,.8-.46c.34,0,.86.2.86,1v1.45h-.44v-1.4c0-.39-.15-.72-.56-.72a.63.63,0,0,0-.59.45.62.62,0,0,0,0,.21v1.46h-.44Z"/><path class="cls-3" d="M159.4,119.1c0,.18,0,.37,0,.67v1.41a1.39,1.39,0,0,1-.35,1.11,1.29,1.29,0,0,1-.88.29,1.57,1.57,0,0,1-.81-.2l.11-.33a1.37,1.37,0,0,0,.71.19c.45,0,.78-.23.78-.85v-.27h0a.87.87,0,0,1-.77.41,1.08,1.08,0,0,1-1-1.18,1.16,1.16,0,0,1,1.09-1.29.81.81,0,0,1,.76.42h0l0-.37Zm-.46,1a.61.61,0,0,0,0-.2.63.63,0,0,0-.62-.46c-.42,0-.72.36-.72.92s.24.87.72.87a.64.64,0,0,0,.61-.45.76.76,0,0,0,0-.24Z"/></g></svg>