<?xml version="1.0" ?><svg id="Layer_1" style="enable-background:new 0 0 48 48;" version="1.1" viewBox="0 0 48 48" xml:space="preserve" xmlns="http://www.w3.org/2000/svg" xmlns:xlink="http://www.w3.org/1999/xlink"><g id="Icons"><g id="Icons_2_"><g><path d="M21.8096,29.52525l-0.107-8.3496l-3.4644-0.0195l0.0973-4.0385h3.406v-2.9195     c0-0.9032,0.1786-1.8603,0.5569-2.6827c0.3166-0.6885,0.8027-1.2861,1.4319-1.7116c0.3163-0.2138,0.6615-0.3828,1.0202-0.5125     c0.5563-0.201,1.198-0.3459,1.7899-0.3596c0.3088-0.0072,0.6186,0.0053,0.9274,0.0146c0.1594,0.0047,2.294,0.0598,2.294,0.0746     l-0.0989,3.6883c0,0-0.4768-0.0195-2.1506,0c-1.6446,0.0195-1.6641,1.2456-1.6641,1.304l-0.0195,3.1044l3.8342,0.0681     l-0.5546,3.9704h-3.2601l-0.0876,8.3691H21.8096z" style="fill:#3B5998;"/><path d="M19.5521,38.15435c0-0.0161-0.0061-0.0322-0.0101-0.0523     c-0.1448,0.0241-0.2815,0.0483-0.4202,0.0684c-0.2715,0.0402-0.545,0.0603-0.8185,0.0221     c-0.201-0.0282-0.3277-0.1388-0.3378-0.3398c-0.0161-0.3519-0.0221-0.7058-0.008-1.0577c0.01-0.2494,0.1267-0.3519,0.372-0.3861     c0.2352-0.0342,0.4685-0.0201,0.7018,0.0101c0.1689,0.0221,0.3358,0.0502,0.5067,0.0764c0.006-0.0141,0.01-0.0181,0.01-0.0242     c0.002-0.2493,0.0041-0.5007,0-0.752c0-0.0201-0.0362-0.0543-0.0603-0.0603c-0.1025-0.0262-0.2051-0.0443-0.3076-0.0604     c-0.4002-0.0643-0.8003-0.0925-1.2005-0.01c-0.3459,0.0724-0.6354,0.2332-0.8345,0.5349     c-0.1528,0.2312-0.2111,0.4906-0.2192,0.7641c-0.006,0.2553-0.006,0.5127,0,0.7681c0.004,0.1367,0.0181,0.2775,0.0483,0.4102     c0.0824,0.37,0.2855,0.6495,0.6274,0.8224c0.2232,0.1147,0.4645,0.1589,0.7098,0.175c0.4001,0.0281,0.7922-0.0302,1.1823-0.1126     c0.0483-0.0101,0.0604-0.0362,0.0604-0.0825C19.5521,38.63085,19.5521,38.39365,19.5521,38.15435z M13.1536,34.76405     c0.1529-0.008,0.3077-0.01,0.4605-0.012c0.0503,0,0.0704-0.0181,0.0704-0.0684c-0.002-0.2433-0.002-0.4866,0-0.7299     c0-0.0402-0.0121-0.0644-0.0583-0.0624c-0.3278,0.0121-0.6575,0.0081-0.9853,0.0382c-0.2313,0.0201-0.4323,0.1287-0.5791,0.3218     c-0.1508,0.195-0.1951,0.4242-0.2051,0.6615c-0.0081,0.187-0.0021,0.3761-0.0021,0.5651c0,0.1005-0.008,0.1065-0.1065,0.1065     h-0.3539c-0.0503-0.002-0.0764,0.0121-0.0764,0.0684c0.002,0.2413,0.002,0.4826,0,0.7219c0,0.0503,0.0201,0.0704,0.0703,0.0704     c0.1126-0.002,0.2252-0.002,0.3378,0c0.1287,0,0.1287,0,0.1287,0.1287c0,0.7842,0,1.5684-0.002,2.3526     c0,0.0764,0.0222,0.0985,0.0966,0.0985c0.2734-0.004,0.5449-0.002,0.8164-0.002c0.1206,0,0.1206,0,0.1206-0.1186     c-0.002-0.7802-0.002-1.5624-0.004-2.3446c0-0.1186,0.002-0.1186,0.1166-0.1186c0.1689,0,0.3398-0.0021,0.5087,0.002     c0.0724,0.002,0.0966-0.0262,0.1006-0.0946c0.002-0.0804,0.0161-0.1608,0.0241-0.2412c0.0161-0.1689,0.0342-0.3358,0.0523-0.5128     c-0.0262-0.004-0.0422-0.006-0.0563-0.006c-0.2172,0-0.4344-0.0041-0.6515,0c-0.0724,0.002-0.0965-0.0262-0.0945-0.0966     c0.004-0.1508,0-0.3036,0.004-0.4544C12.8922,34.86465,12.9807,34.77215,13.1536,34.76405z M16.5358,37.06045     c-0.002-0.2232-0.014-0.4484-0.0462-0.6676c-0.0463-0.3097-0.2031-0.549-0.5047-0.6736     c-0.2112-0.0885-0.4364-0.1227-0.6636-0.1287c-0.38-0.0081-0.7621-0.002-1.1442-0.004h-0.1025     c-0.0302,0.2895-0.0583,0.569-0.0865,0.8606h0.1006c0.3157,0,0.6314-0.004,0.9491,0.002     c0.0864,0.002,0.1749,0.0201,0.2594,0.0443c0.1065,0.0301,0.1709,0.1065,0.1809,0.2211     c0.0081,0.0986,0.0101,0.1971,0.0161,0.2956c0.004,0.0523-0.0161,0.0724-0.0704,0.0724c-0.2795,0.002-0.559,0.0061-0.8385,0.0161     c-0.0945,0.002-0.191,0.0121-0.2855,0.0322c-0.3258,0.0704-0.557,0.2513-0.6374,0.5871     c-0.0403,0.175-0.0503,0.3499-0.0201,0.5289c0.0462,0.2815,0.1608,0.5208,0.4122,0.6776     c0.2875,0.179,0.6012,0.1589,0.9149,0.1127c0.2051-0.0302,0.3981-0.1006,0.5811-0.1951     c0.0664-0.0342,0.0865-0.0221,0.0986,0.0523c0.008,0.0442,0.016,0.0905,0.0241,0.1347h0.8646v-0.1025     C16.5379,38.30515,16.5419,37.68385,16.5358,37.06045z M15.4922,38.12615c-0.002,0.0262-0.0201,0.0644-0.0422,0.0744     c-0.1508,0.0764-0.3076,0.1388-0.4826,0.1348c-0.2192-0.0061-0.3459-0.177-0.2916-0.3901     c0.0242-0.0905,0.0845-0.1388,0.171-0.1488c0.1105-0.0141,0.3338-0.0161,0.3338-0.0161c0.0784,0,0.1568,0,0.2352-0.002     c0.0523,0,0.0784,0.0181,0.0764,0.0744C15.4922,37.94315,15.4962,38.03565,15.4922,38.12615z M33.1875,36.94184     c-0.0021-0.1428-0.0121-0.2876-0.0403-0.4264c-0.0804-0.3921-0.2976-0.6856-0.6736-0.8324     c-0.4926-0.1911-0.9974-0.1931-1.5001-0.0463c-0.4544,0.1307-0.7319,0.4444-0.8103,0.9109     c-0.0402,0.2454-0.0382,0.4987-0.0523,0.7078c0.0141,0.2735,0.008,0.5068,0.0402,0.736     c0.0704,0.4806,0.3338,0.8124,0.8043,0.9652c0.3962,0.1287,0.8024,0.1307,1.2106,0.0543     c0.2453-0.0463,0.4685-0.1448,0.6535-0.3177c0.2332-0.2212,0.3398-0.5047,0.3579-0.8184     C33.1955,37.56515,33.1915,37.25344,33.1875,36.94184z M32.1619,37.29365c0,0,0.0041,0.3399-0.008,0.5088     c-0.0141,0.2192-0.1307,0.3459-0.3439,0.3881c-0.1307,0.0241-0.2634,0.0221-0.3921-0.0262     c-0.1367-0.0502-0.2413-0.1447-0.2473-0.2875c-0.0161-0.366-0.0221-0.736-0.006-1.1019c0.01-0.2212,0.1608-0.3479,0.38-0.372     c0.1327-0.0141,0.2675-0.0121,0.3901,0.0522c0.1649,0.0825,0.2232,0.2273,0.2272,0.4002     C32.166,37.00215,32.1619,37.14695,32.1619,37.29365z M29.7469,36.59395c-0.0703-0.4645-0.3237-0.7963-0.7822-0.9471     c-0.4283-0.1408-0.8646-0.1428-1.299-0.0423c-0.5348,0.1247-0.8566,0.4626-0.931,1.0095     c-0.0301,0.2252-0.008,0.4524-0.022,0.6917c0.014,0.2252-0.0081,0.4665,0.0261,0.6998c0.0603,0.4142,0.2754,0.7279,0.6655,0.9028     c0.2635,0.1167,0.543,0.1488,0.8245,0.1529c0.2373,0.004,0.4745-0.0222,0.7018-0.0966c0.2553-0.0824,0.4765-0.2192,0.6273-0.4544     c0.1368-0.2152,0.2011-0.4504,0.2092-0.7038C29.7811,37.40225,29.8073,36.99605,29.7469,36.59395z M28.7335,37.80245     c-0.006,0.2111-0.1388,0.3599-0.3479,0.3881c-0.0985,0.0141-0.2031,0.0141-0.3016-0.002     c-0.2132-0.0342-0.3418-0.1891-0.3459-0.4103c-0.004-0.3197-0.004-0.6374,0-0.9571c0.0041-0.2373,0.1689-0.4022,0.4123-0.4203     c0.1206-0.008,0.2453-0.008,0.3599,0.0483c0.1387,0.0684,0.2111,0.181,0.2232,0.3338c0.002,0.0121,0.002,0.0261,0.002,0.0382     v0.4866C28.7355,37.47264,28.7395,37.63755,28.7335,37.80245z M22.8739,36.66835c-0.0402-0.5389-0.3257-0.919-0.8666-1.0577     c-0.4002-0.1026-0.8023-0.0985-1.2025-0.004c-0.5127,0.1206-0.8526,0.5208-0.8807,1.0456     c-0.0181,0.3157-0.0161,0.6334-0.0161,0.9491c0,0.1247,0.0101,0.2514,0.0302,0.374c0.0663,0.3841,0.2493,0.6958,0.5992,0.8888     c0.2151,0.1206,0.4504,0.1749,0.6957,0.191c0.5047,0.0382,1.0014-0.002,1.4961-0.1066c0.0523-0.01,0.0724-0.0341,0.0703-0.0884     c-0.002-0.2313,0-0.4605,0-0.6918c0-0.0201-0.004-0.0402-0.006-0.0562c-0.2594,0.0301-0.5148,0.0703-0.7701,0.0824     c-0.2534,0.0141-0.5068,0.0101-0.7581-0.008c-0.1629-0.0141-0.2775-0.1167-0.3117-0.2876     c-0.0121-0.0563-0.0201-0.1126-0.0221-0.1709c-0.004-0.1267,0.002-0.1307,0.1307-0.1307c0.5791,0,1.1602-0.002,1.7393,0     c0.0644,0,0.0885-0.0161,0.0885-0.0825C22.882,37.23335,22.8941,36.94985,22.8739,36.66835z M21.8545,36.85335     c-0.002,0.0221-0.0423,0.0543-0.0664,0.0563c-0.1287,0.004-0.2594,0.002-0.3901,0.002c-0.1307,0-0.2614-0.002-0.3901,0     c-0.0462,0-0.0724-0.0201-0.0684-0.0644c0.0081-0.1005,0.0061-0.2051,0.0362-0.2996c0.0543-0.1669,0.1971-0.2232,0.36-0.2393     c0.0543-0.004,0.1106-0.004,0.1649,0.0041C21.8143,36.35665,21.8766,36.58995,21.8545,36.85335z M36.4892,38.68515     c-0.2674-0.4444-0.5308-0.8867-0.8003-1.3291c-0.0422-0.0704-0.0462-0.1247,0.002-0.1971     c0.2916-0.4544,0.5811-0.9129,0.8687-1.3693c0.0422-0.0644,0.0804-0.1287,0.1206-0.1971     c-0.0201-0.0061-0.0261-0.0121-0.0341-0.0121c-0.3318,0-0.6636,0.002-0.9954,0c-0.0543,0-0.0865,0.0201-0.1146,0.0644     c-0.1649,0.2634-0.3338,0.5248-0.4987,0.7882c-0.1227,0.191-0.2433,0.3841-0.366,0.5751     c-0.0201,0.0302-0.0502,0.0563-0.0744,0.0844c-0.01-0.004-0.0201-0.008-0.0301-0.012v-3.0907     c-0.0282,0.0041-0.0382,0.0041-0.0483,0.0041c-0.2875,0.0502-0.5751,0.0985-0.8646,0.1468     c-0.1167,0.018-0.1187,0.0161-0.1187,0.1347v3.9995c0,0.2091,0,0.4183,0.002,0.6274c0,0.1186,0,0.1206,0.1146,0.1206h0.8084     c0.1086,0,0.1086,0,0.1086-0.1086c0-0.4645-0.002-0.931-0.002-1.3955c0-0.0261,0.008-0.0523,0.01-0.0804     c0.0101-0.002,0.0181-0.004,0.0262-0.0081c0.0301,0.0423,0.0643,0.0825,0.0904,0.1267c0.2796,0.4625,0.557,0.925,0.8345,1.3895     c0.0342,0.0543,0.0724,0.0784,0.1388,0.0784c0.3016-0.004,0.6052-0.002,0.9089-0.002c0.0301,0,0.0583-0.006,0.1065-0.01     C36.6119,38.89435,36.5516,38.78975,36.4892,38.68515z M26.3587,36.85535c-0.004-0.2071-0.0181-0.4183-0.0543-0.6214     c-0.0503-0.2915-0.2212-0.5006-0.5047-0.5972c-0.4464-0.1488-0.8948-0.1226-1.3432-0.008     c-0.1388,0.0362-0.1448,0.0362-0.1448-0.1026c0.002-0.4785,0.004-0.9571,0.008-1.4357v-0.0945     c-0.0261-0.002-0.0342-0.004-0.0402-0.004c-0.3097,0.0523-0.6193,0.1045-0.927,0.1548     c-0.0483,0.0061-0.0684,0.0282-0.0663,0.0764c0.004,0.0925,0.004,0.183,0.004,0.2755v4.3032c0,0.0241,0.002,0.0462,0,0.0703     c-0.0021,0.0443,0.014,0.0644,0.0603,0.0704c0.3479,0.0382,0.6917,0.0945,1.0396,0.1166     c0.3901,0.0242,0.7822,0.0141,1.1622-0.1025c0.2092-0.0644,0.3962-0.1669,0.5409-0.3398     c0.187-0.2252,0.2454-0.4947,0.2554-0.7742C26.3607,37.51485,26.3647,37.18515,26.3587,36.85535z M25.3171,37.76625     c-0.01,0.2835-0.1689,0.4203-0.4665,0.4424c-0.1448,0.01-0.2916,0-0.4384,0.002c-0.0683,0.002-0.0905-0.0262-0.0905-0.0925     c0.0021-0.2473,0-0.4947,0-0.744c0-0.2474,0.0021-0.4947,0-0.744c0-0.0644,0.0222-0.0966,0.0825-0.1227     c0.1629-0.0663,0.3278-0.1146,0.5067-0.1086c0.2494,0.0061,0.4042,0.1488,0.4082,0.3962     C25.3231,37.11875,25.3272,37.44455,25.3171,37.76625z" style="fill:#3B5998;"/></g></g></g></svg>