<?xml version="1.0" ?><svg style="enable-background:new 0 0 48 48;" version="1.1" viewBox="0 0 48 48" xml:space="preserve" xmlns="http://www.w3.org/2000/svg" xmlns:xlink="http://www.w3.org/1999/xlink"><g id="Icons"><g id="Icons_16_"><path d="M29.16615,24.4244h-6.4849c-0.872,0-1.5804-0.7084-1.5804-1.5804v-3.6729h8.0653    c1.2099,0,2.1799-0.9701,2.1799-2.1799c0-1.1989-0.97-2.1798-2.1799-2.1798h-8.0653v-2.5831c0-1.2098-0.97-2.1799-2.1799-2.1799    c-1.1988,0-2.1798,0.9701-2.1798,2.1799v4.7629v5.8528c0,3.2807,2.6703,5.94,5.9401,5.94h6.4849    c1.2099,0,2.1799-0.9699,2.1799-2.1798C31.34605,25.4053,30.37605,24.4244,29.16615,24.4244z" style="fill:#4AA0EC;"/><path d="M18.33365,37.5192c-0.1835,0.1596-0.3837,0.2798-0.6119,0.3499    c-1.0458,0.3214-2.1225-0.4568-2.1403-1.5507c-0.0066-0.4077-0.0041-0.8155-0.0001-1.2232    c0.0037-0.3893,0.323-0.6399,0.6965-0.5531c0.2349,0.0546,0.4094,0.2732,0.4121,0.5207c0.0044,0.4044,0.0059,0.8089,0.0102,1.2134    c0.0035,0.316,0.2677,0.5563,0.583,0.5327c0.2651-0.0198,0.4882-0.2584,0.4917-0.5368c0.0048-0.3895,0.0011-0.7792,0.0043-1.1688    c0.0037-0.4323,0.4238-0.7073,0.8037-0.5245c0.215,0.1035,0.3122,0.2887,0.3152,0.5203c0.0049,0.3805-0.001,0.7612,0.002,1.1417    c0.0028,0.3493,0.267,0.5971,0.5982,0.5672c0.2818-0.0255,0.4833-0.2682,0.4852-0.5908c0.0022-0.3655-0.0007-0.731,0.001-1.0964    c0.0012-0.2425,0.0943-0.4373,0.3206-0.5443c0.3554-0.1679,0.7687,0.0686,0.7851,0.4641c0.0178,0.431,0.0067,0.8634,0.0035,1.2952    c-0.0007,0.0958-0.0139,0.1929-0.0332,0.287c-0.1407,0.6894-0.7029,1.2103-1.4015,1.3106    c-0.4686,0.0674-0.8752-0.0718-1.2434-0.3525C18.38965,37.5611,18.36335,37.5416,18.33365,37.5192z" style="fill:#4AA0EC;"/><path d="M13.03205,34.6115c0.0497,0,0.0855,0,0.1212,0c0.5104,0,1.0209-0.0002,1.5313,0.0001    c0.3127,0.0002,0.5532,0.2223,0.5703,0.5255c0.0173,0.3071-0.2017,0.5571-0.5174,0.5861    c-0.0839,0.0077-0.1689,0.0059-0.2533,0.0059c-0.447,0.0006-0.894,0.0003-1.341,0.0003c-0.0354,0-0.0708,0-0.1319,0    c0.0231,0.2209,0.0271,0.4331,0.0717,0.6364c0.0471,0.2148,0.2656,0.36,0.5177,0.3649c0.3955,0.0077,0.7912,0.0032,1.1868,0.0047    c0.3111,0.0012,0.5502,0.214,0.5921,0.5254c0.0406,0.3018-0.1478,0.5831-0.4434,0.6584    c-0.0464,0.0118-0.0954,0.0193-0.1431,0.0189c-0.4497-0.0035-0.9001,0.0044-1.349-0.0176    c-0.6038-0.0295-1.0398-0.3514-1.3534-0.8494c-0.167-0.2653-0.2474-0.5584-0.2458-0.8759    c0.0041-0.8306,0.0014-1.6611,0.0014-2.4917c0-0.2792,0.2353-0.5332,0.5164-0.5576c0.3833-0.0332,0.6678,0.2261,0.6692,0.6113    c0.0009,0.2473,0.0002,0.4947,0.0002,0.7421C13.03205,34.532,13.03205,34.5647,13.03205,34.6115z" style="fill:#4AA0EC;"/><path d="M30.45695,36.557c-0.0071,0.1435,0.0586,0.2251,0.1692,0.2846    c0.1991,0.107,0.4149,0.118,0.6329,0.1199c0.3199,0.0028,0.6398,0.0029,0.9597,0.007c0.2063,0.0027,0.3875,0.1316,0.4539,0.3162    c0.067,0.1864,0.0147,0.4038-0.1292,0.5316c-0.0971,0.0862-0.2144,0.1233-0.3413,0.1233    c-0.4528,0.0002-0.9062,0.0112-1.3583-0.008c-0.8782-0.0373-1.5931-0.7778-1.6177-1.656    c-0.009-0.3212,0.0323-0.6334,0.1878-0.9202c0.2121-0.3912,0.5318-0.6531,0.966-0.7588c0.4699-0.1144,0.9428-0.1165,1.3986,0.0561    c0.5721,0.2167,0.9424,0.6185,1.0327,1.2398c0.0173,0.1195,0.0051,0.2481-0.0182,0.3676c-0.034,0.1735-0.187,0.279-0.3899,0.293    c-0.0541,0.0037-0.1086,0.0037-0.1629,0.0038c-0.5614,0.0002-1.1228,0.0001-1.6842,0.0001    C30.52395,36.557,30.49185,36.557,30.45695,36.557z M31.62385,35.7734c0.0069-0.1153-0.0458-0.1978-0.136-0.2496    c-0.2898-0.1664-0.5836-0.1673-0.8747-0.0017c-0.0943,0.0537-0.1429,0.138-0.1435,0.2513    C30.85785,35.7734,31.23935,35.7734,31.62385,35.7734z" style="fill:#4AA0EC;"/><path d="M24.30065,34.6115c0.1255,0,0.2395,0,0.3535,0c0.2174,0,0.4348-0.0004,0.6522,0.0001    c0.3284,0.0009,0.5692,0.2328,0.5716,0.5497c0.0025,0.3226-0.2358,0.5641-0.5657,0.5674c-0.314,0.003-0.628,0.0007-0.942,0.0009    c-0.0147,0-0.0293,0.0016-0.0549,0.0031c-0.0069,0.2036-0.0362,0.4048,0.0168,0.6031c0.0599,0.2246,0.2719,0.3844,0.5284,0.3953    c0.1929,0.0081,0.3864,0.0011,0.5796,0.0047c0.2766,0.0051,0.5256,0.2265,0.5633,0.4972c0.0427,0.306-0.1151,0.5895-0.3864,0.6679    c-0.1083,0.0313-0.2258,0.0353-0.3396,0.0419c-0.3731,0.0215-0.7455,0.0141-1.0927-0.144    c-0.6242-0.2842-0.9777-0.7728-1.062-1.4537c-0.0111-0.0895-0.0139-0.1804-0.014-0.2706c-0.0011-0.776-0.0024-1.552,0.0004-2.328    c0.0009-0.234,0.0959-0.4248,0.3095-0.5347c0.2086-0.1075,0.4202-0.1,0.6184,0.0318c0.1677,0.1115,0.252,0.2753,0.2572,0.4743    c0.0068,0.2565,0.0047,0.5131,0.0064,0.7697C24.30085,34.5236,24.30065,34.5597,24.30065,34.6115z" style="fill:#4AA0EC;"/><path d="M27.40355,35.7294c0,0.1743-0.0113,0.3348,0.0024,0.4931    c0.0249,0.2867,0.2544,0.4948,0.5539,0.5084c0.1898,0.0086,0.3803,0.0016,0.5705,0.0048c0.2985,0.0049,0.5602,0.25,0.5741,0.535    c0.0173,0.3531-0.1753,0.621-0.4855,0.6549c-0.1825,0.0199-0.3675,0.0233-0.5513,0.0227    c-0.4603-0.0014-0.8841-0.1167-1.236-0.4296c-0.4126-0.3669-0.6257-0.8257-0.6252-1.3811c0.0008-0.797-0.001-1.594,0.001-2.391    c0.0006-0.2349,0.0953-0.4248,0.3087-0.535c0.2055-0.1061,0.415-0.0973,0.6115,0.0278c0.1926,0.1227,0.2694,0.31,0.271,0.5317    c0.0018,0.2475,0.004,0.4952-0.0015,0.7427c-0.0018,0.0823,0.0248,0.1006,0.1028,0.0995    c0.3049-0.0044,0.6099-0.0023,0.9148-0.0016c0.3114,0.0006,0.5515,0.2283,0.5624,0.532c0.0111,0.3107-0.2019,0.5612-0.5139,0.5761    c-0.313,0.0149-0.6271,0.0073-0.9407,0.0096C27.48685,35.7296,27.45115,35.7294,27.40355,35.7294z" style="fill:#4AA0EC;"/><path d="M34.25225,36.8226c-0.0001,0.1842,0.0046,0.3685-0.001,0.5524    c-0.0138,0.4486-0.4635,0.7104-0.8362,0.4862c-0.1721-0.1036-0.265-0.2605-0.2678-0.464    c-0.0025-0.1781-0.0044-0.3563,0.0003-0.5343c0.0078-0.3001-0.0014-0.6029,0.0363-0.8995    c0.0845-0.665,0.6498-1.2371,1.3141-1.3265c0.288-0.0388,0.5836-0.0222,0.8758-0.0293c0.0723-0.0017,0.1447,0.0033,0.2171,0.0038    c0.3168,0.0018,0.5621,0.2405,0.5643,0.5496c0.0024,0.3175-0.2347,0.5622-0.5564,0.5675c-0.2533,0.0041-0.5067-0.0007-0.76,0.0013    c-0.3001,0.0023-0.5115,0.1461-0.5628,0.3981c-0.0244,0.1195-0.0191,0.2455-0.0229,0.3688    C34.24975,36.6052,34.25245,36.714,34.25225,36.8226z" style="fill:#4AA0EC;"/><path d="M21.50995,36.2318c0-0.3623,0-0.7247,0-1.087c0.0001-0.3389,0.2498-0.6125,0.5665-0.6208    c0.3496-0.0091,0.6201,0.2407,0.6234,0.5998c0.0068,0.7396,0.0058,1.4793,0.0003,2.219c-0.0025,0.3312-0.238,0.5711-0.5629,0.5967    c-0.292,0.023-0.5681-0.1873-0.6155-0.4858c-0.0211-0.1328-0.0107-0.2709-0.0114-0.4066    C21.50905,36.7753,21.50995,36.5036,21.50995,36.2318z" style="fill:#4AA0EC;"/><path d="M22.10315,33.01649c0.3347,0.0009,0.5991,0.2644,0.5988,0.5967    c-0.0002,0.3413-0.2673,0.6041-0.6124,0.6026c-0.3266-0.0014-0.5805-0.2661-0.5793-0.6035    C21.51165,33.2672,21.76205,33.0155,22.10315,33.01649z" style="fill:#4AA0EC;"/></g></g></svg>